# xmcd
#
# Track frame offsets:
#	182
#	16357
#	30157
#	43957
#	59257
#	72832
#	82207
#	94132
#	106957
#	119032
#	133732
#	145432
#	161257
#	175132
#
# Disc length: 2494 seconds
#
# Revision: 0
# Processed by: cddbd v1.5.2PL0 Copyright (c) Steve Scherf et al.
# Submitted via: audiograbber 1.83.01
#
DISCID=c409bc0e
DTITLE=Desree-Ilona Crawford - Precious Love
DYEAR=1900
DGENRE=Country
TTITLE0=I'm Not Through Loving You Yet
TTITLE1=Precious Love
TTITLE2=You Put The Blue In Me
TTITLE3=Heartbreak
TTITLE4=Take Your Love Away
TTITLE5=One More Mountain
TTITLE6=That Is As Far As It Goes
TTITLE7=When The Night Time Comes
TTITLE8=Thank You For Being You
TTITLE9=Fool Me Again
TTITLE10=Why Country Songs Are Sad
TTITLE11=I Run Alone
TTITLE12=Since You're Gone
TTITLE13=Ho Ho Ho-Kus Polka
EXTD=
EXTT0=
EXTT1=
EXTT2=
EXTT3=
EXTT4=
EXTT5=
EXTT6=
EXTT7=
EXTT8=
EXTT9=
EXTT10=
EXTT11=
EXTT12=
EXTT13=
PLAYORDER=
